<svg viewBox="0 0 32 32" xmlns="http://www.w3.org/2000/svg">
    <!-- Fondo circular profesional -->
    <circle cx="16" cy="16" r="15" fill="#1e40af"/>
    
    <!-- Coach (figura principal) -->
    <circle cx="11" cy="10" r="2.5" fill="#ffffff"/>
    <rect x="8.5" y="13" width="5" height="6" rx="1" fill="#ffffff"/>
    
    <!-- Coachee (figura en desarrollo) -->
    <circle cx="21" cy="11" r="2" fill="#e5e7eb"/>
    <rect x="19" y="14" width="4" height="5" rx="1" fill="#e5e7eb"/>
    
    <!-- Flecha de crecimiento -->
    <path d="M14 17 L19 12" stroke="#10b981" stroke-width="1.5" stroke-linecap="round"/>
    <path d="M18 12 L19 12 L19 13" stroke="#10b981" stroke-width="1.5" stroke-linecap="round" fill="none"/>
    
    <!-- Meta/objetivo (estrella) -->
    <path d="M26 6 L27 8 L29 8 L27.5 9.5 L28 11.5 L26 10.5 L24 11.5 L24.5 9.5 L23 8 L25 8 Z" fill="#fbbf24"/>
    
    <!-- Indicador de progreso (barras pequeñas) -->
    <rect x="8" y="24" width="2" height="2" fill="#10b981"/>
    <rect x="11" y="23" width="2" height="3" fill="#10b981"/>
    <rect x="14" y="22" width="2" height="4" fill="#10b981"/>
</svg> 